<svg xmlns="http://www.w3.org/2000/svg" viewBox="0 0 35.2016 27.503625"><path d="M34.666 2.218C34.16 1.132 32.83-.038 30.8 0H4.4C2.36-.04 1.029 1.163.53 2.26-.008 3.352.003 4.309 0 4.4v13.201c.004.088-.007 1.051.53 2.141.49 1.078 1.79 2.26 3.776 2.26H30.8c.092-.008 1.053.006 2.141-.531 1.095-.498 2.298-1.83 2.26-3.87V4.333c-.008-.094.007-1.041-.535-2.115zm-32.43 1.85c.055-.352.214-.868.514-1.217.31-.346.688-.633 1.65-.649h26.4c1.27.04 1.589.48 1.907 1.016.14.271.218.57.254.795.04.224.028.32.037.32v.068H2.2s-.002-.103.037-.334zm30.765 13.535c-.04 1.257-.49 1.578-1.043 1.902-.28.14-.59.22-.823.256-.232.04-.335.031-.335.039H4.4c-1.26-.04-1.579-.488-1.907-1.043-.14-.28-.217-.59-.254-.824-.041-.229-.032-.33-.039-.33V8.801H33v8.8z"/></svg>